<?xml version="1.0" encoding="UTF-8" standalone="no"?>
<svg width="117px" height="21px" viewBox="0 0 117 21" version="1.1" xmlns="http://www.w3.org/2000/svg" xmlns:xlink="http://www.w3.org/1999/xlink">
    <!-- Generator: Sketch 43.2 (39069) - http://www.bohemiancoding.com/sketch -->
    <title>RR Wortmarke weiß</title>
    <desc>Created with Sketch.</desc>
    <defs></defs>
    <g id="Symbols" stroke="none" stroke-width="1" fill="none" fill-rule="evenodd">
        <g id="RR-Wortmarke-weiß" fill-rule="nonzero" fill="#FFFFFF">
            <path d="M49.3668033,10.471827 C49.3668033,6.88616961 46.8258197,5.02162777 43.1885246,4.98064883 C40.7909836,5.02162777 36.897541,6.38417758 36.3135246,6.59931702 C36.272541,6.61980649 36.2315574,6.65054069 36.2213115,6.70176437 L33.4446721,19.8457598 C33.4139344,19.9994308 33.5266393,20.1428571 33.6905738,20.1428571 L37.942623,20.1428571 C38.0553279,20.1428571 38.1577869,20.0608993 38.1885246,19.9482072 L40.2991803,9.96983495 C40.2991803,9.96983495 41.1803279,9.66249289 41.5081967,9.57029027 C41.8872951,9.46784291 42.3995902,9.36539556 42.727459,9.36539556 L42.7479508,9.36539556 L42.7581967,9.36539556 L42.7991803,9.36539556 C43.875,9.38588503 44.6127049,9.93910074 44.6127049,11.1172453 C44.6127049,11.3528742 44.5819672,11.6089926 44.5204918,11.8958452 L42.7991803,19.8457598 C42.7684426,19.9994308 42.8811475,20.1428571 43.045082,20.1428571 L47.2971311,20.1428571 C47.4098361,20.1428571 47.5122951,20.0608993 47.5430328,19.9482072 L49.1618852,12.367103 C49.2848361,11.6909505 49.3668033,11.0660216 49.3668033,10.471827 Z" id="Shape"></path>
            <path d="M64.5819672,10.471827 C64.5819672,6.88616961 62.0409836,5.02162777 58.4036885,4.98064883 C56.0061475,5.02162777 52.1127049,6.38417758 51.5286885,6.59931702 C51.4877049,6.61980649 51.4467213,6.65054069 51.4364754,6.70176437 L48.6495902,19.8560046 C48.6188525,20.0096756 48.7315574,20.1531019 48.8954918,20.1531019 L53.147541,20.1531019 C53.2602459,20.1531019 53.3627049,20.071144 53.3934426,19.9584519 L55.5143443,9.98007968 C55.5143443,9.98007968 56.3954918,9.67273762 56.7233607,9.580535 C57.102459,9.47808765 57.6147541,9.3756403 57.942623,9.3756403 L57.9631148,9.3756403 L57.9733607,9.3756403 L58.0143443,9.3756403 C59.0901639,9.39612977 59.8278689,9.94934548 59.8278689,11.12749 C59.8278689,11.363119 59.7971311,11.6192373 59.7356557,11.9060899 L58.0245902,19.8560046 C57.9938525,20.0096756 58.1065574,20.1531019 58.2704918,20.1531019 L62.522541,20.1531019 C62.6352459,20.1531019 62.7377049,20.071144 62.7684426,19.9584519 L64.3770492,12.3773478 C64.5,11.6909505 64.5819672,11.0660216 64.5819672,10.471827 Z" id="Shape"></path>
            <path d="M33.567623,14.1599317 C33.8852459,13.3813318 34.1311475,12.0495162 34.1311475,11.1070006 C34.1311475,7.47011952 31.4569672,5.01138304 27.7377049,5.01138304 C21.5594262,5.01138304 19.1618852,10.4513375 19.1618852,14.0984633 C19.1618852,17.8480364 21.7643443,20.5628913 26.170082,20.5628913 C28.8032787,20.5628913 30.8319672,19.7945361 32.2459016,18.3910074 C32.3381148,18.2988048 32.3381148,18.1451338 32.2459016,18.0426864 L29.8586066,15.5839499 C29.7663934,15.4917473 29.6229508,15.4815026 29.5204918,15.5634604 C28.5881148,16.3625498 27.522541,16.5981787 26.4877049,16.5981787 C24.920082,16.5981787 23.8852459,15.7888446 23.7622951,14.2418896 L33.4344262,14.2418896 C33.4856557,14.2521343 33.5368852,14.2111554 33.567623,14.1599317 Z M29.6639344,11.2709163 L24.3565574,11.2709163 C24.8995902,10.0722823 25.8729508,9.01707456 27.4508197,9.01707456 C28.8032787,9.01707456 29.6639344,9.73420603 29.6639344,11.1992032 L29.6639344,11.2709163 L29.6639344,11.2709163 Z" id="Shape"></path>
            <path d="M116.631148,1.32327832 L112.440574,1.32327832 C112.327869,1.32327832 112.22541,1.4052362 112.194672,1.51792829 L111.129098,6.65054069 C110.186475,5.53386454 108.721311,4.98064883 106.979508,4.98064883 C101.559426,4.98064883 98.9057377,9.93910074 98.9057377,13.6579397 C98.9057377,17.4484917 101.467213,20.5321571 104.981557,20.5321571 C106.590164,20.5321571 107.747951,19.9277177 108.670082,19.0466705 L108.495902,19.8457598 C108.465164,19.9994308 108.577869,20.1428571 108.741803,20.1428571 L112.819672,20.1428571 C112.932377,20.1428571 113.034836,20.0608993 113.065574,19.9482072 L116.918033,1.66135458 C116.938525,1.48719408 116.805328,1.32327832 116.631148,1.32327832 Z M110.002049,12.8486056 C109.776639,14.7541264 108.372951,16.1474104 106.631148,16.1474104 C105.217213,16.1474104 103.803279,15.1844052 103.803279,13.1866818 C103.803279,11.1070006 105.278689,9.38588503 107.215164,9.38588503 C108.82377,9.3756403 110.268443,10.625498 110.002049,12.8486056 Z" id="Shape"></path>
            <path d="M99.4487705,5.39043825 L95.2581967,5.39043825 C95.1454918,5.39043825 95.0430328,5.47239613 95.0122951,5.58508822 L94.7868852,6.65054069 C93.8442623,5.53386454 92.3790984,4.98064883 90.6372951,4.98064883 C85.2172131,4.98064883 82.5430328,9.93910074 82.5430328,13.6579397 C82.5430328,17.4484917 85.1147541,20.5321571 88.6393443,20.5321571 C90.2377049,20.5321571 91.4057377,19.9277177 92.3278689,19.0466705 L92.1536885,19.8457598 C92.1229508,19.9994308 92.2356557,20.1428571 92.3995902,20.1428571 L96.4364754,20.1428571 C96.5491803,20.1428571 96.6516393,20.0608993 96.682377,19.9482072 L99.704918,5.68753557 C99.7151639,5.54410928 99.602459,5.39043825 99.4487705,5.39043825 Z M93.6393443,12.8588503 C93.4139344,14.7643711 92.0102459,16.1576551 90.2684426,16.1576551 C88.8545082,16.1576551 87.4405738,15.19465 87.4405738,13.1969266 C87.4405738,11.1172453 88.9159836,9.39612977 90.852459,9.39612977 C92.4713115,9.3756403 93.9159836,10.625498 93.6393443,12.8588503 Z" id="Shape"></path>
            <path d="M14.4897541,13.1252134 C18.8135246,12.1314741 20.2377049,9.07854297 20.2377049,6.26124075 C20.2377049,3.02390438 17.7069672,0.27831531 13.1577869,0.27831531 L4.96106557,0.27831531 C4.84836066,0.27831531 4.74590164,0.360273193 4.71516393,0.472965282 L0.596311475,19.8457598 C0.56557377,19.9994308 0.678278689,20.1428571 0.842213115,20.1428571 L5.48360656,20.1428571 C5.59631148,20.1428571 5.69877049,20.0608993 5.7295082,19.9482072 L7.10245902,13.453045 L9.05942623,13.453045 L12.6967213,20.0199203 C12.7377049,20.1018782 12.8196721,20.1428571 12.9118852,20.1428571 L18.3217213,20.1428571 C18.5163934,20.1428571 18.6290984,19.9277177 18.5368852,19.7638019 L14.4897541,13.1252134 Z M11.7848361,9.22196927 L7.99385246,9.22196927 L8.92622951,4.8269778 L12.4508197,4.8269778 C14.1209016,4.8269778 15.0942623,5.56459875 15.0942623,6.73249858 C15.0942623,8.02333523 14.2848361,9.22196927 11.7848361,9.22196927 Z" id="Shape"></path>
            <path d="M77.8811475,13.2891292 C77.829918,13.2071713 77.8709016,13.104724 77.9631148,13.0842345 C82.1434426,12.0392715 83.5266393,9.03756403 83.5266393,6.27148549 C83.5266393,3.03414912 80.9959016,0.288560046 76.4467213,0.288560046 L68.1680328,0.288560046 C68.1065574,0.288560046 68.045082,0.339783722 68.0348361,0.401252134 L63.8647541,19.9891861 C63.8442623,20.071144 63.9159836,20.1531019 63.9979508,20.1531019 L68.8545082,20.1531019 C68.9159836,20.1531019 68.977459,20.1018782 68.9877049,20.0404098 L70.3606557,13.5759818 C70.3709016,13.5145134 70.432377,13.4632897 70.4938525,13.4632897 L72.2561475,13.4632897 C72.307377,13.4632897 72.3586066,13.4940239 72.3790984,13.5350028 L76.0061475,20.0813887 C76.0266393,20.1223677 76.0778689,20.1531019 76.1290984,20.1531019 L81.795082,20.1531019 L81.795082,20.1531019 C81.9077869,20.1531019 81.9692623,20.0301651 81.9180328,19.9379624 L77.8811475,13.2891292 Z M75.0840164,9.22196927 L71.4672131,9.22196927 C71.375,9.22196927 71.3135246,9.14001138 71.3340164,9.0580535 L72.204918,4.94991463 C72.2151639,4.88844622 72.2766393,4.83722254 72.3381148,4.83722254 L75.7397541,4.83722254 C77.4098361,4.83722254 78.3831967,5.57484348 78.3831967,6.74274331 C78.3934426,8.02333523 77.5737705,9.22196927 75.0840164,9.22196927 Z" id="Shape"></path>
        </g>
    </g>
</svg>